<?xml version="1.0" standalone="no"?>
<!DOCTYPE svg PUBLIC "-//W3C//DTD SVG 20010904//EN"
 "http://www.w3.org/TR/2001/REC-SVG-20010904/DTD/svg10.dtd">
<svg version="1.0" xmlns="http://www.w3.org/2000/svg"
 width="512.000000pt" height="512.000000pt" viewBox="0 0 512.000000 512.000000"
 preserveAspectRatio="xMidYMid meet">
<metadata>
Created by potrace 1.14, written by Peter Selinger 2001-2017
</metadata>
<g transform="translate(0.000000,512.000000) scale(0.100000,-0.100000)"
fill="#000000" stroke="none">
<path d="M1389 5116 c-2 -2 -56 -6 -119 -10 -63 -3 -126 -8 -140 -10 -14 -3
-47 -7 -75 -11 -319 -39 -613 -221 -816 -505 -90 -125 -161 -279 -184 -399
-18 -89 -36 -233 -42 -336 -10 -158 -10 -2461 0 -2590 24 -314 79 -499 200
-680 155 -232 378 -408 617 -488 79 -26 93 -30 232 -52 169 -27 317 -30 1483
-30 1048 0 1347 4 1435 19 14 3 51 7 82 11 479 52 933 477 1012 950 39 230 41
310 41 1580 0 1177 -3 1321 -30 1495 -21 136 -23 147 -52 230 -56 163 -176
351 -294 460 -227 210 -430 307 -714 340 -49 5 -108 13 -130 16 -41 7 -2499
16 -2506 10z"/>
</g>
</svg>
