<?xml version="1.0" standalone="no"?>
<!DOCTYPE svg PUBLIC "-//W3C//DTD SVG 20010904//EN"
 "http://www.w3.org/TR/2001/REC-SVG-20010904/DTD/svg10.dtd">
<svg version="1.0" xmlns="http://www.w3.org/2000/svg"
 width="512.000000pt" height="512.000000pt" viewBox="0 0 512.000000 512.000000"
 preserveAspectRatio="xMidYMid meet">
<metadata>
Created by potrace 1.14, written by Peter Selinger 2001-2017
</metadata>
<g transform="translate(0.000000,512.000000) scale(0.100000,-0.100000)"
fill="#000000" stroke="none">
<path d="M1324 5109 c-459 -22 -688 -112 -945 -368 -116 -116 -191 -220 -250
-345 -73 -156 -102 -311 -119 -626 -13 -249 -13 -2163 0 -2418 20 -396 68
-575 210 -788 68 -101 243 -276 344 -344 213 -142 387 -189 786 -210 249 -13
2163 -13 2418 0 396 20 575 68 788 210 101 68 276 243 344 344 142 213 189
387 210 786 13 249 13 2163 0 2418 -20 396 -68 575 -210 788 -68 101 -243 276
-344 344 -213 142 -387 189 -786 210 -221 11 -2212 11 -2446 -1z m2627 -972
c63 -8 147 -23 185 -32 214 -52 444 -244 551 -460 103 -207 117 -406 110
-1562 -5 -831 -10 -924 -52 -1099 -62 -254 -309 -513 -570 -597 -188 -61 -424
-70 -1770 -64 -1179 5 -1234 7 -1421 52 -214 52 -444 244 -551 460 -103 207
-117 406 -110 1562 5 831 10 924 52 1099 62 254 309 513 570 597 80 26 223 47
382 56 81 5 679 8 1328 6 998 -2 1198 -5 1296 -18z"/>
<path d="M2452 3742 c-95 -34 -165 -108 -197 -207 -14 -45 -15 -133 -13 -755
l3 -705 23 -50 c18 -41 136 -163 619 -647 676 -677 647 -653 793 -653 66 0 96
5 131 21 66 31 121 84 154 151 25 49 30 70 30 138 0 149 29 113 -576 720
l-538 540 -3 615 c-3 604 -3 616 -24 661 -69 149 -249 225 -402 171z"/>
</g>
</svg>
